# xmcd
#
# Track frame offsets: 
#        150
#        12106
#        25165
#        36959
#        50577
#        64208
#        79298
#        90908
#        104036
#        116296
#        129267
#        141929
#        155095
#        166718
#        178675
#        192269
#        205226
#        217247
#        229049
#        241710
#        254814
#        266625
#        280876
#        292521
#        303019
#        315267
#        327868
#        339841
#
# Disc length: 4679 seconds
#
# Revision: 1
# Processed by: cddbd v1.5.2PL0 Copyright (c) Steve Scherf et al.
# Submitted via: ExactAudioCopyFreeDBPlugin 1.0
#
DISCID=8412451c
DTITLE=Various Artist - Western Swingin' [CD3]
DYEAR=2011
DGENRE=Country
TTITLE0=Brown's Musical Brownies - Louise, Louise Blues
TTITLE1=Bob Wills And His Texas Playboys - Corrine Corrina
TTITLE2=Hartman's Heart Breakers - Feels Good
TTITLE3=T Texas Tyler And His Oklahoma Melody Boys - My Bucket's Got A
TTITLE3=Hole In It
TTITLE4=Tommy Duncan And His Western All Stars - Never No Mo' Blues
TTITLE5=Bob Wills And His Texas Playboys - Sittin' On Top Of The World
TTITLE6=Buddy Jones - She's A Hum-Dum Dinger
TTITLE7=Johnnie Lee Wills And His Boys - Milk Cow Blues
TTITLE8=Swift Jewel Cowboys - Fan It!
TTITLE9=Hank Penny - Let Me Play With Your Poodle
TTITLE10=Adolph Hofner And His Texans - Joe Turner Blues
TTITLE11=Cliff Bruner's Texas Wanderers - Kangaroo Blues
TTITLE12=Smoky Wood And The Woodchips - Woodchip Blues
TTITLE13=Roy Hogsed And His Rainbow Riders - Cocaine Blues
TTITLE14=Modern Mountaineers - Pipe Liner's Blues
TTITLE15=Bill Boyd And His Cowboy Ramblers - Mama Don't Like No Music
TTITLE16=The Jubileers - The Right String But The Wrong Yo-Yo
TTITLE17=Bob Dunn's Vagabonds - Mean Mistreater Blues
TTITLE18=Bob Wills And His Texas Playboys - Brain Cloudy Blues
TTITLE19=Jesse Ashlock - My Bank Account Is Gone
TTITLE20=Hank Penny And Jaye P Morgan - You Played On My Piano
TTITLE21=Billy Jack Wills And His Western Swing Band - I Don't Know
TTITLE22=Ann Jones And Her Western Sweethearts - Knockin' Blues
TTITLE23=Hank Thompson And His Brazos Valley Boys - Good Rockin' Tonig
TTITLE23=ht
TTITLE24=Les "Carrot Top" Anderson And Redd Harper - And I Shook
TTITLE25=Tommy Duncan And The Miller Brothers - Hound Dog
TTITLE26=Bennie Leaders - Hey, Miss Fannie
TTITLE27=Cecil Campbell And His Tennessee Ramblers - Rock And Roll Fev
TTITLE27=er
EXTD=
EXTT0=
EXTT1=
EXTT2=
EXTT3=
EXTT4=
EXTT5=
EXTT6=
EXTT7=
EXTT8=
EXTT9=
EXTT10=
EXTT11=
EXTT12=
EXTT13=
EXTT14=
EXTT15=
EXTT16=
EXTT17=
EXTT18=
EXTT19=
EXTT20=
EXTT21=
EXTT22=
EXTT23=
EXTT24=
EXTT25=
EXTT26=
EXTT27=
PLAYORDER=
